# xmcd
#
# Track frame offsets:
#	183
#	18095
#	35058
#	59288
#	76383
#	96753
#	120308
#	131858
#	156533
#	173433
#	193058
#	207720
#	237233
#
# Disc length: 3351 seconds
#
# Revision: 2
# Processed by: cddbd v1.5.1PL0 Copyright (c) Steve Scherf et al.
# Submitted via: EasyCDDAExtractor 7.0.5.4
#
DISCID=b00d150d
DTITLE=Champion Jack Dupree - I Had A Dream
DYEAR=1968
DGENRE=Blues
TTITLE0=Ugly Woman
TTITLE1=The Tricks
TTITLE2=Death of Martin Luther King
TTITLE3=Take Me Back Baby
TTITLE4=In the Evening
TTITLE5=My Black and White Dog
TTITLE6=Early in the Morning
TTITLE7=I Had a Dream
TTITLE8=My Next Door Neighbour
TTITLE9=Goin' To Paris
TTITLE10=I'm Tired of Moanin'
TTITLE11=Death of Louis Armstrong
TTITLE12=Baby's Comin' Home
EXTD=
EXTT0=
EXTT1=
EXTT2=
EXTT3=
EXTT4=
EXTT5=
EXTT6=
EXTT7=
EXTT8=
EXTT9=
EXTT10=
EXTT11=
EXTT12=
PLAYORDER=
